<svg xmlns="http://www.w3.org/2000/svg" width="375" viewBox="0 0 375 375" height="375" version="1.0"><defs><clipPath id="a"><path d="M 128.097656 79.179688 L 263.097656 79.179688 L 263.097656 187 L 128.097656 187 Z M 128.097656 79.179688"/></clipPath></defs><g clip-path="url(#a)"><path fill="#FFF503" d="M 262.894531 149.632812 C 262.589844 149.316406 262.027344 149.480469 261.832031 149.847656 C 251.5625 151.941406 245.972656 153.324219 244.714844 153.292969 C 240.1875 154.128906 235.90625 155.023438 235.011719 155.0625 C 234.171875 155.015625 221.679688 158.15625 221.148438 157.535156 C 221.710938 156.632812 223.421875 152.558594 223.78125 150.765625 C 223.867188 150.296875 225.027344 147.976562 223.601562 142.144531 C 223.160156 140.144531 222.632812 138.621094 221.355469 136.363281 C 221.222656 136.109375 220.953125 135.882812 221 135.574219 C 222.382812 133.925781 223.871094 132.265625 224.566406 130.191406 C 225.832031 126.355469 224.863281 124.0625 223.066406 119.992188 C 221.292969 115.59375 220.128906 112.855469 218.191406 109.980469 C 217.878906 109.667969 218.199219 109.417969 216.765625 110.332031 C 215.878906 110.746094 213.746094 111.394531 211.601562 111.523438 C 210.683594 111.582031 210.960938 111.414062 211.015625 106.710938 C 211.019531 106.390625 210.917969 106.03125 211.113281 105.738281 C 212.953125 103.308594 213.269531 103.917969 213.070312 103.183594 C 212.328125 101.03125 211.796875 98.8125 211.109375 96.644531 C 210.824219 95.925781 211.070312 93.449219 211.152344 93.003906 C 216.855469 92.605469 219.488281 94.25 220.488281 94.261719 C 219.976562 93.421875 217.902344 92.289062 216.484375 91.871094 C 216.480469 91.78125 216.476562 91.691406 216.476562 91.601562 C 217.03125 91.691406 218.976562 91.476562 219.882812 90.679688 C 214.421875 90.632812 214.6875 88.957031 212.460938 88.773438 C 212.082031 88.746094 211.714844 88.652344 211.367188 88.507812 C 211.382812 88.214844 211.382812 87.921875 211.367188 87.628906 C 211.148438 87.589844 210.933594 87.542969 210.71875 87.503906 C 210.429688 88.246094 210.234375 95.484375 210.148438 96.59375 C 210.132812 97.074219 209.867188 97.488281 209.703125 97.921875 C 207.703125 102.808594 207.117188 103.351562 207.472656 103.664062 C 208.207031 104.347656 208.777344 105.179688 209.414062 105.953125 C 209.53125 106.121094 209.71875 106.28125 209.679688 106.511719 C 209.671875 106.871094 209.617188 110.71875 209.375 111.265625 C 208.375 111.371094 203.851562 110.238281 201.925781 109.339844 C 202.53125 111.089844 203.148438 112.84375 203.519531 114.660156 C 203.519531 114.660156 194.800781 114.753906 194.800781 114.753906 C 194.609375 114.738281 194.328125 114.765625 194.257812 114.539062 C 192.457031 110.253906 191.449219 107.734375 191.894531 103.671875 C 189.167969 102.976562 186.269531 102.636719 182.054688 101.46875 C 181.878906 101.109375 182.273438 100.785156 182.421875 100.476562 C 182.691406 100.160156 182.890625 99.792969 183.140625 99.464844 C 183.40625 99.089844 184.003906 99.066406 184.167969 98.605469 C 184.21875 98.199219 183.671875 98.152344 183.398438 98.011719 C 182.945312 97.160156 180.464844 90.378906 180.503906 87.882812 C 180.546875 86.347656 180.40625 83.964844 180.855469 84.007812 C 185.492188 83.824219 187.882812 84.566406 190.335938 83.699219 C 190.476562 83.667969 190.605469 83.601562 190.675781 83.46875 C 189.910156 83.277344 189.117188 83.207031 188.335938 83.105469 C 187.730469 83.007812 187.164062 82.753906 186.574219 82.589844 C 186.300781 82.496094 185.945312 82.433594 185.847656 82.113281 C 186.121094 82.105469 188.507812 81.734375 189.46875 81.355469 C 189.617188 81.324219 189.671875 81.183594 189.730469 81.058594 C 188.996094 80.890625 188.234375 80.957031 187.5 80.792969 C 184.105469 79.992188 182.195312 80.179688 180.832031 80.023438 C 180.816406 79.816406 180.800781 79.605469 180.792969 79.398438 C 180.632812 79.203125 180.386719 79.1875 180.15625 79.179688 C 180.089844 79.25 180.027344 79.316406 179.964844 79.386719 C 179.972656 79.621094 179.882812 87.007812 179.882812 87.074219 C 179.765625 88.875 178.382812 92.554688 178.074219 93.675781 C 178.058594 93.742188 176.933594 97.753906 176.113281 98.347656 C 176.113281 98.472656 176.113281 98.597656 176.113281 98.726562 C 176.4375 99.1875 176.9375 99.554688 177.085938 100.117188 C 176.152344 99.832031 175.195312 99.621094 174.273438 99.296875 C 172.625 98.871094 168.5 97.550781 168.433594 97.53125 C 166.714844 97.070312 166.5 96.640625 165.476562 96.949219 C 165.847656 97.988281 166.957031 99.128906 168.070312 103.246094 C 169.660156 108.101562 169.277344 116.371094 167.660156 120.75 C 167.640625 120.769531 167.59375 120.804688 167.570312 120.820312 C 166.707031 120.265625 165.980469 119.539062 165.1875 118.894531 C 155.59375 111.046875 157.027344 112.039062 156.550781 111.019531 C 156.417969 110.660156 156.113281 110.300781 156.285156 109.902344 C 157.625 109.945312 158.945312 109.578125 160.285156 109.550781 C 161.585938 109.558594 162.890625 109.585938 164.183594 109.402344 C 163.644531 108.589844 161.796875 108.835938 160.414062 108.121094 C 160.777344 107.910156 163.308594 108.089844 163.847656 106.632812 C 162.671875 107.085938 160.96875 106.898438 160.511719 106.730469 C 158.710938 106.203125 160.3125 106.3125 156.507812 106.613281 C 156.453125 106.59375 156.34375 106.554688 156.289062 106.535156 C 156.308594 106.253906 156.277344 105.96875 156.082031 105.753906 C 155.9375 105.753906 155.792969 105.757812 155.648438 105.761719 C 155.546875 105.929688 155.4375 106.105469 155.464844 106.3125 C 155.46875 107.65625 155.421875 109.003906 155.4375 110.347656 C 155.039062 110.628906 154.960938 111.132812 154.859375 111.574219 C 154.777344 111.914062 153.382812 117.011719 153.253906 117.292969 C 152.84375 117.574219 151.089844 114.269531 149.394531 111.984375 C 143.886719 105.492188 144.589844 105.972656 144.105469 105.902344 C 143.804688 107.042969 145.324219 109.441406 145.960938 111.078125 C 147.808594 115.054688 151.714844 126.21875 151.355469 127.445312 C 151.089844 128.34375 147.050781 146.609375 146.5625 146.832031 C 146.210938 146.859375 145.882812 146.695312 145.535156 146.671875 C 143.71875 146.554688 141.957031 145.992188 140.132812 145.9375 C 139.265625 145.953125 139.324219 144.875 138.964844 143.019531 C 139.566406 142.789062 140.289062 143.136719 140.835938 142.742188 C 142.203125 141.765625 141.003906 140.734375 139.519531 139.933594 C 140.121094 138.757812 141.671875 137.886719 142.207031 135.65625 C 142.617188 133.71875 142.316406 131.6875 141.589844 129.863281 C 141.050781 128.761719 139.808594 127.15625 137.742188 125.640625 C 135.808594 123.859375 136.609375 124.015625 136.660156 123.226562 C 136.867188 122.207031 135.320312 121.75 134.742188 122.492188 C 134.226562 123.265625 134.667969 123.558594 134.90625 124.570312 C 135.722656 129.492188 135.457031 130.308594 135.710938 132.550781 C 135.816406 134.136719 136.171875 136.257812 135.988281 136.523438 C 135.632812 137.105469 135.28125 137.710938 135.136719 138.382812 C 135.035156 139.347656 134.984375 140.351562 135.320312 141.277344 C 135.65625 142.226562 136.875 143.207031 136.925781 143.792969 C 136.324219 143.859375 135.71875 143.835938 135.125 143.734375 C 133.730469 143.484375 131.792969 143.320312 132.058594 142.664062 C 132.082031 142.59375 133.734375 138.753906 133.972656 138.28125 C 134.085938 137.929688 133.054688 137.945312 132.140625 136.945312 C 131.859375 136.648438 131.664062 136.285156 131.410156 135.964844 C 130.488281 136.71875 129.3125 137.027344 128.167969 137.273438 C 128.101562 139.308594 128.46875 141.582031 128.835938 142.171875 C 129.203125 142.613281 129.945312 142.46875 130.269531 142.96875 C 131.640625 145.007812 134.351562 145.050781 136.25 145.398438 C 136.25 145.398438 137.09375 154.433594 140.175781 161.355469 C 141.144531 163.257812 141.824219 163.199219 142.226562 165.324219 C 142.59375 168.097656 142.773438 173.910156 142.957031 175.261719 C 143.027344 175.933594 142.898438 176.609375 142.914062 177.285156 C 142.679688 182.265625 142.53125 182.109375 141.019531 183.15625 C 139.941406 183.800781 138.898438 184.511719 137.820312 185.152344 C 137.617188 185.421875 137.722656 185.828125 137.640625 186.152344 C 137.679688 186.195312 137.75 186.28125 137.789062 186.324219 C 137.789062 186.324219 148.152344 186.4375 154.898438 186.117188 C 188.105469 184.542969 199.390625 187.183594 211.753906 184.75 C 218.980469 183.332031 222.273438 181.808594 226.039062 176.089844 C 227.777344 173.191406 227.179688 172.320312 227.445312 170.910156 C 235.589844 167.5 233.648438 162.398438 235.765625 161.304688 C 236.550781 160.894531 237.472656 160.667969 238.074219 159.984375 C 238.867188 159.078125 238.292969 158.875 237.878906 158.046875 C 237.042969 156.59375 236.472656 157.015625 235.523438 157.234375 C 235.136719 157.195312 235.105469 156.730469 235.160156 156.433594 C 235.160156 156.433594 255.402344 151.769531 261.703125 150.597656 C 262.054688 150.53125 262.429688 150.777344 262.761719 150.589844 C 263.09375 150.394531 263.042969 149.921875 262.894531 149.632812 Z M 216.242188 91.75 L 216.234375 91.652344 C 216.390625 91.445312 216.433594 91.921875 216.242188 91.75 Z M 211.300781 104.527344 C 211.144531 104.34375 211.027344 103.90625 211.320312 103.8125 C 211.488281 103.796875 211.652344 103.804688 211.820312 103.808594 C 211.738281 104.101562 211.519531 104.320312 211.300781 104.527344 Z M 210.980469 99.097656 L 211.128906 99.023438 C 211.324219 99.691406 211.433594 100.378906 211.667969 101.035156 C 211.910156 101.71875 212.15625 102.402344 212.371094 103.09375 C 211.984375 103.234375 211.5625 103.183594 211.164062 103.230469 C 211.121094 103.078125 211.078125 102.925781 211.078125 102.769531 C 211.058594 101.542969 210.90625 100.324219 210.980469 99.097656 Z M 130.402344 141.574219 C 130.082031 141.589844 129.734375 141.605469 129.441406 141.441406 C 129.269531 140.402344 129.046875 139.359375 128.988281 138.304688 C 129.003906 138.15625 128.921875 137.90625 129.128906 137.855469 C 129.519531 137.910156 129.894531 138.058594 130.285156 138.105469 C 130.421875 138.566406 130.402344 139.042969 130.449219 139.519531 C 130.375 140.199219 130.488281 140.890625 130.402344 141.574219 Z M 131.011719 141.539062 C 131.089844 140.464844 131.300781 139.402344 131.457031 138.335938 C 131.9375 138.433594 132.519531 138.410156 132.875 138.796875 C 132.5625 139.394531 132.550781 140.085938 132.285156 140.699219 C 132.1875 141.074219 131.964844 141.40625 131.898438 141.789062 C 131.597656 141.808594 131.183594 141.84375 131.011719 141.539062 Z M 152.769531 142.269531 C 152.558594 143.128906 152.410156 144.007812 152.085938 144.835938 C 151.757812 145.738281 151.433594 146.640625 151.003906 147.5 L 150.917969 147.5625 C 150.425781 147.503906 149.945312 147.34375 149.449219 147.28125 C 148.945312 147.152344 148.394531 147.183594 147.917969 146.953125 C 147.769531 146.84375 147.839844 146.660156 147.863281 146.511719 C 148.347656 144.421875 148.804688 142.328125 149.28125 140.238281 C 149.652344 138.515625 149.972656 136.785156 150.378906 135.070312 C 150.566406 134.082031 150.730469 133.09375 150.945312 132.109375 C 151.109375 131.015625 151.355469 129.925781 151.71875 128.875 C 151.914062 129.070312 151.925781 129.355469 151.964844 129.613281 C 152.011719 130.054688 152.152344 130.480469 152.1875 130.925781 C 152.332031 132.335938 152.554688 133.742188 152.644531 135.160156 C 152.796875 136.441406 152.851562 137.726562 152.949219 139.011719 C 152.957031 139.285156 152.925781 139.558594 152.9375 139.832031 C 153.007812 140.648438 152.851562 141.460938 152.769531 142.269531 Z M 154.496094 147.429688 C 154.296875 147.527344 154.292969 147.785156 154.121094 147.894531 C 153.765625 147.933594 153.402344 147.875 153.085938 147.714844 C 153.523438 147.367188 153.964844 147.027344 154.417969 146.703125 C 154.574219 146.914062 154.511719 147.183594 154.496094 147.429688 Z M 155.007812 117.894531 C 154.769531 117.917969 154.519531 117.9375 154.292969 117.835938 C 154.148438 117.632812 154.277344 117.355469 154.285156 117.128906 C 154.523438 116.085938 154.679688 115.03125 154.878906 113.984375 C 154.9375 113.984375 155.054688 113.980469 155.113281 113.980469 C 155.277344 115.285156 155.105469 116.59375 155.007812 117.894531 Z M 172.089844 126.578125 C 172.542969 126.742188 172.722656 127.25 173.007812 127.605469 C 173.382812 128.070312 173.738281 128.554688 174.0625 129.0625 C 174.71875 129.859375 175.199219 130.785156 175.898438 131.550781 C 176.027344 131.695312 176.109375 131.871094 176.136719 132.0625 C 175.78125 132.074219 175.429688 132.003906 175.089844 131.917969 C 173.734375 131.773438 172.378906 131.644531 171.039062 131.378906 C 169.386719 131.148438 167.734375 130.894531 166.082031 130.660156 C 165.371094 130.511719 164.640625 130.484375 163.945312 130.285156 C 163.902344 130.171875 163.765625 130.019531 163.914062 129.929688 C 164.871094 129.011719 165.9375 128.171875 167.210938 127.742188 C 168.742188 127.074219 170.382812 126.425781 172.089844 126.578125 Z M 176.175781 137.519531 C 176.464844 137.519531 176.765625 137.460938 177.046875 137.570312 C 177.011719 137.828125 176.917969 138.070312 176.667969 138.1875 C 176.515625 138.589844 176.277344 138.964844 176.277344 139.410156 C 176.011719 140.082031 175.644531 140.714844 175.457031 141.414062 C 175.234375 141.667969 175.1875 142.015625 175.042969 142.3125 C 174.675781 143.113281 174.382812 143.941406 174 144.734375 C 173.511719 145.933594 172.839844 147.050781 172.414062 148.273438 C 172.289062 148.21875 172.152344 148.179688 172.078125 148.058594 C 171.078125 146.863281 170.0625 145.671875 169.121094 144.429688 C 168.660156 143.742188 168.050781 143.15625 167.601562 142.464844 C 166.9375 140.539062 165.941406 138.761719 165.003906 136.960938 C 164.894531 136.757812 164.734375 136.582031 164.703125 136.34375 C 165.769531 136.367188 166.855469 136.605469 167.921875 136.382812 C 168.773438 136.148438 169.613281 135.84375 170.382812 135.40625 C 171.21875 136.265625 172.269531 136.917969 173.433594 137.242188 C 174.332031 137.441406 175.253906 137.558594 176.175781 137.519531 Z M 156.679688 113.136719 C 157.179688 114.371094 157.453125 115.683594 157.835938 116.957031 C 157.863281 117.09375 157.957031 117.328125 157.773438 117.398438 C 157.464844 117.523438 157.121094 117.566406 156.796875 117.488281 C 156.753906 116.019531 156.527344 114.558594 156.421875 113.09375 C 156.484375 113.105469 156.613281 113.125 156.679688 113.136719 Z M 159.917969 149.246094 C 159.671875 149.3125 159.4375 149.160156 159.199219 149.125 C 158.335938 148.957031 157.484375 148.746094 156.640625 148.496094 C 156.367188 148.378906 155.984375 148.164062 156.058594 147.8125 C 156.089844 147.074219 156.058594 146.328125 156.136719 145.59375 C 156.261719 145.367188 156.503906 145.261719 156.71875 145.136719 C 157.375 144.765625 158.070312 144.464844 158.769531 144.183594 C 158.921875 144.085938 159.035156 144.113281 159.109375 144.261719 C 159.523438 145.6875 159.675781 147.171875 159.910156 148.636719 C 159.910156 148.835938 160.011719 149.054688 159.917969 149.246094 Z M 159.652344 127.621094 C 159.257812 127.167969 159.050781 126.601562 158.726562 126.101562 C 158.535156 125.703125 158.191406 125.371094 158.097656 124.929688 C 157.957031 123.785156 157.675781 122.667969 157.542969 121.523438 C 157.589844 121.453125 157.636719 121.386719 157.6875 121.320312 C 157.597656 120.871094 157.648438 120.40625 157.613281 119.953125 C 158.027344 119.335938 158.605469 118.851562 159.03125 118.25 C 158.644531 116.761719 157.992188 115.351562 157.636719 113.851562 C 158.167969 114.113281 158.558594 114.578125 159.046875 114.910156 C 159.539062 115.375 160.097656 115.765625 160.597656 116.222656 C 161.566406 116.984375 162.464844 117.828125 163.4375 118.574219 C 164.519531 119.515625 165.644531 120.414062 166.703125 121.386719 C 166.863281 121.546875 167.175781 121.636719 167.179688 121.902344 C 167.082031 122.402344 166.78125 122.824219 166.597656 123.292969 C 166.535156 123.398438 166.476562 123.5 166.414062 123.601562 C 166.046875 124.367188 165.5625 125.066406 165.117188 125.792969 C 164.789062 126.144531 164.554688 126.570312 164.226562 126.925781 C 163.492188 127.839844 162.839844 128.855469 161.875 129.546875 C 161.671875 129.742188 161.410156 130.050781 161.113281 129.816406 C 160.402344 129.269531 160.199219 128.3125 159.652344 127.621094 Z M 161.605469 149.667969 C 161.394531 148.925781 161.222656 148.167969 161.117188 147.402344 C 160.878906 146.425781 160.730469 145.429688 160.515625 144.445312 C 160.492188 144.234375 160.367188 143.996094 160.507812 143.800781 C 160.851562 143.789062 161.214844 143.828125 161.523438 143.984375 C 161.988281 145.554688 162.195312 147.1875 162.511719 148.789062 C 162.539062 149.128906 162.625 149.460938 162.660156 149.800781 C 162.304688 149.796875 161.957031 149.714844 161.605469 149.667969 Z M 163.777344 149.199219 C 163.398438 148.203125 163.25 147.140625 162.898438 146.136719 C 162.730469 145.4375 162.601562 144.71875 162.300781 144.058594 C 162.355469 144.039062 162.464844 143.996094 162.519531 143.976562 C 163.1875 144.398438 163.832031 144.855469 164.523438 145.242188 C 165.324219 145.800781 166.203125 146.273438 166.878906 146.996094 C 166.464844 147.488281 166.007812 147.949219 165.496094 148.339844 C 165.003906 148.71875 164.578125 149.171875 164.058594 149.511719 C 163.953125 149.417969 163.816406 149.339844 163.777344 149.199219 Z M 169.394531 155.035156 C 169.378906 155.21875 169.117188 155.320312 168.980469 155.199219 C 167.609375 154.210938 166.355469 153.054688 165.328125 151.714844 C 164.988281 151.273438 164.863281 150.71875 164.539062 150.269531 C 164.535156 150.214844 164.523438 150.105469 164.519531 150.050781 C 164.921875 149.769531 165.222656 149.375 165.601562 149.0625 C 166.210938 148.574219 166.714844 147.976562 167.328125 147.496094 C 167.894531 147.371094 168.476562 147.40625 169.042969 147.277344 C 169.015625 146.492188 168.597656 145.789062 168.519531 145.019531 C 168.792969 145.191406 168.964844 145.472656 169.175781 145.710938 C 170.140625 146.824219 171.050781 147.976562 171.957031 149.132812 C 171.945312 149.183594 171.925781 149.285156 171.917969 149.335938 C 171.09375 151.242188 170.308594 153.167969 169.394531 155.035156 Z M 172.796875 154.257812 C 172.585938 154.914062 172.441406 155.589844 172.210938 156.242188 L 172.101562 156.296875 C 171.714844 156.230469 171.34375 156.09375 170.976562 155.949219 C 171.011719 155.785156 171.039062 155.621094 171.101562 155.464844 C 171.726562 153.917969 172.152344 152.304688 172.761719 150.753906 C 172.824219 150.628906 172.820312 150.414062 172.996094 150.390625 C 173.257812 150.609375 173.449219 150.902344 173.664062 151.167969 C 173.378906 152.199219 173.148438 153.246094 172.796875 154.257812 Z M 173.84375 150.253906 C 173.640625 150.023438 173.449219 149.78125 173.242188 149.554688 C 173.429688 148.949219 173.652344 148.351562 173.847656 147.75 C 174.421875 146.207031 174.824219 144.609375 175.417969 143.074219 C 175.546875 142.492188 175.796875 141.953125 175.976562 141.390625 C 176.253906 140.738281 176.394531 140.039062 176.683594 139.390625 C 176.796875 139.421875 176.902344 139.46875 176.996094 139.539062 C 177.019531 139.703125 176.945312 139.867188 176.902344 140.023438 C 176.578125 140.914062 176.425781 141.855469 176.125 142.753906 C 175.445312 145.214844 174.742188 147.671875 173.972656 150.105469 C 173.941406 150.144531 173.878906 150.21875 173.84375 150.253906 Z M 174.179688 156.429688 C 174.445312 155.480469 174.605469 154.503906 174.882812 153.554688 C 174.933594 153.328125 174.925781 153.089844 175.046875 152.886719 C 175.269531 153.101562 175.535156 153.300781 175.644531 153.601562 C 175.523438 154.675781 175.179688 155.71875 175.011719 156.785156 C 174.730469 156.746094 174.089844 156.898438 174.179688 156.429688 Z M 177.644531 157.773438 C 177.128906 157.816406 176.871094 157.3125 176.683594 156.925781 C 176.332031 156.714844 175.796875 157.023438 175.527344 156.664062 C 175.652344 156.199219 175.695312 155.722656 175.792969 155.257812 C 175.859375 154.90625 176 154.570312 176.035156 154.214844 C 176.308594 154.300781 176.429688 154.578125 176.621094 154.769531 C 176.980469 155.125 177.296875 155.519531 177.625 155.898438 C 177.738281 156.015625 177.71875 156.1875 177.722656 156.335938 C 177.707031 156.816406 177.683594 157.292969 177.644531 157.773438 Z M 177.882812 146.515625 C 177.84375 149.246094 177.835938 151.980469 177.730469 154.714844 C 177.457031 154.699219 177.335938 154.410156 177.152344 154.246094 C 176.8125 153.921875 176.617188 153.46875 176.234375 153.1875 C 176.144531 152.722656 176.3125 152.265625 176.410156 151.816406 C 176.550781 151.230469 176.601562 150.628906 176.738281 150.042969 C 176.996094 149.050781 177.175781 148.042969 177.40625 147.046875 C 177.535156 146.492188 177.652344 145.9375 177.707031 145.375 L 177.839844 145.257812 C 177.960938 145.667969 177.875 146.09375 177.882812 146.515625 Z M 177.785156 142.945312 C 177.460938 144.953125 177 146.929688 176.621094 148.925781 C 176.339844 150.121094 176.128906 151.332031 175.855469 152.527344 C 175.605469 152.402344 175.421875 152.191406 175.25 151.980469 C 175.464844 151.082031 175.617188 150.171875 175.902344 149.292969 C 176.199219 147.957031 176.574219 146.640625 176.890625 145.308594 C 177.109375 144.109375 177.441406 142.9375 177.714844 141.75 C 177.742188 141.585938 177.832031 141.449219 177.925781 141.316406 C 178.015625 141.867188 177.84375 142.40625 177.785156 142.945312 Z M 177.222656 137.882812 C 177.292969 137.730469 177.34375 137.511719 177.554688 137.503906 C 177.5 137.75 177.601562 138.152344 177.304688 138.261719 C 177.105469 138.226562 177.171875 138.003906 177.222656 137.882812 Z M 178.113281 132.246094 C 177.972656 132.382812 177.816406 132.199219 177.722656 132.105469 C 177.5 131.824219 177.417969 131.46875 177.226562 131.167969 C 176.710938 130.347656 176.285156 129.476562 175.824219 128.628906 C 175.65625 128.296875 175.375 127.96875 175.414062 127.574219 C 176.332031 127.636719 177.238281 127.359375 178.152344 127.484375 C 178.226562 129.066406 178.15625 130.65625 178.113281 132.246094 Z M 178.621094 100.492188 C 178.382812 100.503906 178.285156 100.292969 178.214844 100.105469 C 178.117188 99.792969 177.824219 99.554688 177.875 99.203125 C 178.136719 99.296875 178.546875 99.171875 178.703125 99.4375 C 178.664062 99.789062 178.605469 100.136719 178.621094 100.492188 Z M 179.441406 92.933594 C 179.308594 93.910156 179.292969 94.898438 179.195312 95.875 C 179.171875 96.589844 179.011719 97.289062 179.003906 98.003906 C 178.667969 98.054688 178.335938 97.980469 178.011719 97.910156 C 177.757812 97.808594 177.859375 97.496094 177.890625 97.296875 C 178.234375 95.828125 178.6875 94.386719 179.070312 92.925781 C 179.132812 92.722656 179.234375 92.535156 179.335938 92.347656 C 179.445312 92.523438 179.472656 92.730469 179.441406 92.933594 Z M 203.75 115.511719 C 203.910156 116.117188 204.183594 116.703125 204.238281 117.332031 C 204.492188 118.710938 204.414062 120.128906 204.25 121.511719 C 204.09375 122.222656 204.035156 122.96875 203.722656 123.636719 C 203.546875 124.085938 203.414062 124.550781 203.21875 124.996094 C 202.71875 126.003906 202.386719 127.089844 201.828125 128.070312 C 201.550781 128.664062 201.242188 129.246094 200.921875 129.820312 C 200.144531 131.03125 199.460938 132.300781 198.789062 133.570312 C 198.472656 133.410156 198.28125 133.105469 198.058594 132.847656 C 197.074219 131.660156 196.125 130.441406 195.15625 129.246094 C 194.96875 129.058594 195.101562 128.800781 195.238281 128.632812 C 195.269531 128.445312 195.316406 128.257812 195.40625 128.085938 C 195.597656 127.699219 195.6875 127.273438 195.808594 126.863281 C 196.097656 126.078125 196.160156 125.230469 196.351562 124.417969 C 196.441406 123.820312 196.421875 123.214844 196.464844 122.609375 C 196.386719 121.285156 196.398438 119.9375 196.03125 118.648438 C 195.910156 118.210938 195.832031 117.75 195.601562 117.351562 C 195.40625 116.746094 194.890625 116.253906 194.859375 115.597656 C 197.824219 115.554688 200.785156 115.449219 203.75 115.511719 Z M 195.769531 145.253906 C 196.378906 143.21875 197.09375 141.214844 197.722656 139.183594 C 198.054688 138.996094 198.445312 139.101562 198.742188 139.300781 C 198.464844 140.039062 198.261719 140.800781 197.960938 141.53125 C 197.484375 143.164062 196.894531 144.761719 196.417969 146.394531 C 196.425781 146.59375 196.160156 146.632812 196.050781 146.507812 C 195.882812 146.382812 195.722656 146.257812 195.578125 146.113281 C 195.53125 145.8125 195.691406 145.535156 195.769531 145.253906 Z M 194.898438 145.308594 C 194.84375 145.316406 194.738281 145.335938 194.683594 145.34375 C 193.640625 144.484375 192.632812 143.582031 191.59375 142.714844 C 191.300781 142.5 191.035156 142.253906 190.78125 142 C 189.417969 140.855469 188.066406 139.695312 186.746094 138.5 C 186.539062 138.347656 186.832031 138.179688 186.976562 138.167969 C 187.328125 138.0625 187.625 137.835938 187.933594 137.648438 C 188.074219 137.59375 188.207031 137.6875 188.308594 137.777344 C 188.890625 138.273438 189.546875 138.738281 190.316406 138.894531 C 191.34375 139.113281 192.414062 138.941406 193.394531 138.601562 C 193.96875 138.292969 194.511719 137.917969 195.027344 137.523438 C 195.171875 137.429688 195.308594 137.582031 195.417969 137.664062 C 195.882812 138.117188 196.375 138.585938 196.996094 138.820312 C 196.820312 139.761719 196.386719 140.632812 196.148438 141.558594 C 195.765625 142.820312 195.28125 144.046875 194.898438 145.308594 Z M 185.738281 129.488281 C 185.820312 129.402344 185.9375 129.351562 186.039062 129.289062 C 186.273438 128.9375 186.636719 128.714844 186.953125 128.449219 C 187.199219 128.253906 187.398438 128.003906 187.675781 127.84375 C 187.824219 127.769531 187.960938 127.910156 188.09375 127.957031 C 189.992188 128.9375 191.800781 130.082031 193.621094 131.199219 C 193.707031 131.179688 193.796875 131.160156 193.886719 131.140625 C 193.996094 130.738281 194.339844 130.464844 194.507812 130.089844 C 194.640625 130.101562 194.773438 130.144531 194.839844 130.269531 C 196 131.699219 197.179688 133.113281 198.28125 134.589844 C 197.816406 134.78125 197.3125 134.597656 196.835938 134.5625 C 194.980469 134.289062 193.097656 134.246094 191.238281 133.96875 C 189.675781 133.820312 188.121094 133.589844 186.566406 133.386719 C 185.746094 133.332031 184.9375 133.167969 184.121094 133.089844 C 183.636719 133.003906 183.136719 133.003906 182.664062 132.855469 C 182.75 132.550781 183.050781 132.382812 183.222656 132.132812 C 184.085938 131.273438 184.855469 130.332031 185.738281 129.488281 Z M 182.257812 99.617188 C 181.953125 100.027344 181.765625 100.511719 181.457031 100.929688 C 181.320312 101.089844 181.351562 101.453125 181.066406 101.429688 C 180.898438 101.453125 180.789062 101.292969 180.800781 101.140625 C 180.773438 100.5625 180.789062 99.980469 180.820312 99.398438 C 181.171875 99.378906 181.523438 99.367188 181.875 99.351562 C 182.058594 99.3125 182.144531 99.515625 182.257812 99.617188 Z M 180.742188 95.074219 C 180.851562 94.417969 180.753906 93.75 180.863281 93.089844 C 181.054688 93.238281 181.054688 93.496094 181.132812 93.707031 C 181.371094 94.390625 181.707031 95.050781 181.828125 95.769531 C 181.996094 96.476562 182.0625 97.199219 182.199219 97.910156 C 182.203125 98.089844 182.011719 98.136719 181.871094 98.113281 C 181.597656 98.09375 181.320312 98.050781 181.046875 98.066406 C 180.945312 97.980469 180.847656 97.894531 180.75 97.808594 C 180.796875 96.898438 180.675781 95.984375 180.742188 95.074219 Z M 180.699219 132.226562 C 180.707031 131.722656 180.6875 131.210938 180.757812 130.710938 C 180.984375 129.742188 181.152344 128.746094 181.1875 127.75 C 181.308594 127.679688 181.417969 127.578125 181.558594 127.554688 C 182.503906 127.652344 183.429688 127.859375 184.355469 128.074219 C 184.390625 128.238281 184.421875 128.421875 184.296875 128.5625 C 183.578125 129.558594 182.777344 130.496094 182.011719 131.460938 C 181.6875 131.816406 181.34375 132.15625 181.007812 132.5 C 180.824219 132.640625 180.671875 132.394531 180.699219 132.226562 Z M 181.476562 160.605469 C 181.050781 160.527344 180.664062 160.328125 180.289062 160.121094 C 180.234375 159.941406 180.1875 159.757812 180.195312 159.570312 C 180.207031 157.445312 180.289062 155.320312 180.332031 153.195312 C 180.332031 152.8125 180.320312 152.425781 180.4375 152.058594 C 180.695312 152.886719 180.722656 153.765625 180.855469 154.621094 C 181.128906 156.578125 181.257812 158.5625 181.683594 160.492188 C 181.632812 160.519531 181.527344 160.574219 181.476562 160.605469 Z M 182.261719 160.597656 C 182.082031 159.550781 181.886719 158.5 181.773438 157.441406 C 181.617188 156.832031 181.679688 156.199219 181.59375 155.582031 C 181.496094 154.167969 181.265625 152.765625 181.128906 151.355469 C 181.039062 150.441406 180.820312 149.542969 180.730469 148.625 C 180.597656 147.523438 180.339844 146.421875 180.511719 145.308594 C 180.800781 145.8125 180.765625 146.417969 180.925781 146.964844 C 181.03125 147.765625 181.292969 148.539062 181.320312 149.347656 C 181.378906 150.308594 181.652344 151.238281 181.800781 152.191406 C 181.929688 153.019531 182.136719 153.832031 182.25 154.660156 C 182.511719 155.816406 182.5625 157 182.800781 158.160156 C 182.914062 159.023438 183.203125 159.855469 183.265625 160.730469 C 182.929688 160.800781 182.535156 160.851562 182.261719 160.597656 Z M 185.191406 160.816406 C 184.609375 158.148438 184.078125 155.46875 183.59375 152.785156 C 183.402344 152.113281 183.351562 151.414062 183.175781 150.742188 C 182.804688 148.960938 182.402344 147.183594 182.070312 145.394531 C 181.800781 144.265625 181.652344 143.109375 181.402344 141.984375 C 181.449219 141.992188 181.546875 142.003906 181.59375 142.011719 C 182.007812 143.367188 182.308594 144.75 182.683594 146.113281 C 182.878906 146.851562 182.972656 147.617188 183.179688 148.355469 C 183.511719 149.488281 183.824219 150.625 184.164062 151.753906 C 184.636719 153.652344 185.054688 155.5625 185.535156 157.460938 C 185.695312 157.875 185.65625 158.332031 185.796875 158.753906 C 185.964844 159.488281 186.183594 160.210938 186.332031 160.949219 C 185.945312 160.980469 185.558594 160.945312 185.191406 160.816406 Z M 189.496094 161.070312 C 189.242188 161.035156 188.824219 161.195312 188.726562 160.867188 C 188.410156 160.09375 188.179688 159.289062 187.917969 158.5 C 187.546875 157.441406 187.199219 156.375 186.832031 155.316406 C 186.320312 153.96875 185.746094 152.644531 185.335938 151.261719 C 185.039062 150.484375 184.851562 149.675781 184.554688 148.898438 C 184.15625 147.476562 183.621094 146.097656 183.136719 144.707031 C 182.777344 143.546875 182.351562 142.410156 181.945312 141.265625 C 181.542969 140.34375 181.210938 139.394531 180.898438 138.4375 C 180.824219 138.140625 180.691406 137.855469 180.683594 137.546875 C 181.433594 137.816406 182.183594 138.101562 182.976562 138.222656 C 183.65625 138.402344 184.359375 138.355469 185.050781 138.433594 C 185.433594 138.488281 185.898438 138.339844 186.203125 138.652344 C 188.835938 140.898438 191.445312 143.171875 194.085938 145.410156 C 194.324219 145.628906 194.726562 145.863281 194.570312 146.25 C 193.222656 150.472656 191.707031 154.636719 190.359375 158.859375 C 190.058594 159.59375 189.890625 160.375 189.496094 161.070312 Z M 190.875 160.074219 C 190.90625 159.4375 191.222656 158.859375 191.40625 158.253906 C 191.683594 157.332031 192.027344 156.433594 192.367188 155.535156 C 192.613281 154.648438 192.921875 153.785156 193.179688 152.90625 C 193.753906 151.414062 194.265625 149.898438 194.695312 148.355469 C 194.921875 147.761719 195.097656 147.148438 195.398438 146.585938 C 195.65625 146.773438 195.921875 146.972656 196.121094 147.230469 C 196.082031 147.71875 195.769531 148.132812 195.714844 148.621094 C 195.472656 149.300781 195.332031 150.007812 195.058594 150.675781 C 194.710938 151.875 194.140625 152.996094 193.800781 154.199219 C 193.511719 155.082031 193.203125 155.960938 192.902344 156.839844 C 192.445312 158.054688 192.171875 159.339844 191.519531 160.472656 C 191.277344 160.683594 190.90625 160.328125 190.875 160.074219 Z M 201.601562 158.8125 C 200.960938 159.691406 199.996094 160.296875 198.960938 160.609375 C 198.234375 160.761719 197.492188 160.890625 196.746094 160.839844 C 196.378906 160.804688 196.011719 160.863281 195.644531 160.851562 C 195.902344 160.550781 196.304688 160.480469 196.652344 160.335938 C 197.472656 160 198.332031 159.773438 199.132812 159.398438 C 199.960938 159.105469 200.789062 158.816406 201.605469 158.492188 C 201.839844 158.507812 201.664062 158.722656 201.601562 158.8125 Z M 202.886719 153.203125 C 202.164062 154.640625 200.976562 155.78125 199.707031 156.75 C 198.320312 157.90625 196.753906 158.824219 195.273438 159.851562 C 194.675781 160.289062 194 160.601562 193.394531 161.023438 C 193.167969 161.191406 192.894531 161.238281 192.679688 161.023438 C 192.753906 160.085938 193.246094 159.25 193.472656 158.347656 C 193.820312 157.269531 194.113281 156.175781 194.496094 155.109375 C 194.628906 154.714844 194.742188 154.316406 194.820312 153.910156 C 194.855469 153.875 194.921875 153.796875 194.957031 153.761719 C 195.09375 153.101562 195.335938 152.472656 195.558594 151.835938 C 195.738281 151.242188 195.929688 150.652344 196.144531 150.066406 C 196.191406 149.976562 196.164062 149.875 196.148438 149.78125 C 196.449219 149.488281 196.414062 149.039062 196.59375 148.6875 C 196.707031 148.464844 196.769531 148.222656 196.824219 147.984375 C 197.035156 147.9375 197.203125 148.078125 197.351562 148.207031 C 199.121094 149.730469 200.921875 151.214844 202.664062 152.765625 C 202.78125 152.871094 203.011719 153.019531 202.886719 153.203125 Z M 203.160156 152.511719 C 202.601562 152.226562 202.191406 151.734375 201.699219 151.355469 C 200.273438 150.191406 198.898438 148.96875 197.496094 147.773438 C 197.296875 147.613281 196.976562 147.421875 197.109375 147.121094 C 197.847656 145.027344 198.464844 142.898438 199.125 140.78125 C 199.386719 140.335938 199.421875 139.789062 199.75 139.382812 C 199.890625 139.199219 199.972656 138.980469 200.027344 138.761719 C 200.113281 138.351562 200.339844 137.996094 200.417969 137.585938 C 200.566406 137.464844 200.691406 137.648438 200.769531 137.75 C 201.589844 138.941406 202.308594 140.207031 202.863281 141.542969 C 203.332031 142.621094 203.726562 143.734375 203.917969 144.898438 C 204.136719 146.101562 204.324219 147.328125 204.152344 148.550781 C 203.996094 149.824219 203.792969 151.105469 203.300781 152.296875 C 203.265625 152.351562 203.195312 152.457031 203.160156 152.511719 Z M 204.835938 157.75 C 204.402344 157.757812 203.953125 157.875 203.523438 157.769531 L 203.527344 157.65625 C 203.84375 157.457031 204.214844 157.355469 204.574219 157.257812 C 204.832031 157.257812 204.863281 157.554688 204.835938 157.75 Z M 208.894531 135.101562 C 207.113281 135.191406 205.351562 134.859375 203.574219 134.824219 C 202.722656 134.75 201.867188 134.703125 201.015625 134.628906 C 200.726562 134.585938 200.3125 134.683594 200.179688 134.34375 C 200.742188 133.972656 201.417969 133.875 202.058594 133.703125 C 203.871094 133.207031 205.773438 133.234375 207.636719 133.078125 C 208.070312 133.148438 208.640625 132.902344 208.972656 133.242188 C 209 133.859375 209.019531 134.492188 208.894531 135.101562 Z M 209.574219 104.722656 C 209.519531 104.726562 209.414062 104.742188 209.359375 104.746094 C 209.164062 104.511719 208.890625 104.285156 208.914062 103.949219 C 209.136719 103.964844 209.355469 103.980469 209.578125 104 C 209.597656 104.238281 209.617188 104.484375 209.574219 104.722656 Z M 209.726562 103.339844 C 209.226562 103.425781 208.714844 103.429688 208.214844 103.332031 C 208.34375 102.5 208.726562 101.734375 209.019531 100.949219 C 209.238281 100.296875 209.421875 99.625 209.769531 99.027344 L 209.875 98.953125 C 209.929688 98.957031 210.046875 98.964844 210.105469 98.96875 C 209.910156 100.417969 209.871094 101.882812 209.726562 103.339844 Z M 211.230469 133.566406 C 211.273438 133.355469 211.546875 133.421875 211.703125 133.414062 C 212.621094 133.527344 213.546875 133.542969 214.460938 133.683594 C 215.738281 133.925781 217.019531 134.21875 218.210938 134.753906 C 218.589844 134.921875 219 135.046875 219.34375 135.285156 C 219.367188 135.335938 219.410156 135.4375 219.433594 135.488281 C 217.976562 135.539062 216.519531 135.425781 215.066406 135.375 C 213.734375 135.277344 212.390625 135.371094 211.070312 135.175781 C 211.046875 134.636719 211.089844 134.089844 211.230469 133.566406 Z M 218.539062 157.527344 C 217.6875 157.425781 216.832031 157.585938 215.980469 157.539062 C 214.691406 157.464844 213.402344 157.429688 212.113281 157.457031 C 211.960938 157.386719 212.003906 157.171875 211.976562 157.039062 C 211.941406 156.53125 212.113281 156.035156 212.054688 155.527344 C 212.023438 155.320312 212.273438 155.277344 212.425781 155.261719 C 213.03125 155.21875 213.644531 155.175781 214.242188 155.296875 C 215.457031 155.441406 216.71875 155.621094 217.792969 156.25 C 218.410156 156.667969 219.003906 157.128906 219.527344 157.664062 C 219.59375 157.753906 219.652344 157.851562 219.703125 157.957031 C 219.242188 158.035156 218.984375 157.527344 218.539062 157.527344 Z M 230.554688 159.796875 C 230 160.015625 229.464844 160.28125 228.898438 160.472656 C 227.980469 160.675781 227.085938 160.980469 226.15625 161.128906 C 225.621094 161.226562 225.085938 161.476562 224.535156 161.339844 C 224.039062 161.199219 223.476562 161.261719 223.035156 160.960938 C 222.679688 160.699219 222.253906 160.539062 221.949219 160.210938 C 221.714844 159.953125 221.359375 159.792969 221.214844 159.464844 C 222.132812 159.105469 223.089844 158.851562 224.058594 158.675781 C 226.839844 158.0625 229.636719 157.53125 232.425781 156.980469 C 232.539062 156.964844 232.730469 156.90625 232.785156 157.054688 C 233.007812 157.5 233.09375 158.003906 233.1875 158.492188 C 232.390625 159.066406 231.4375 159.378906 230.554688 159.796875 Z M 230.554688 159.796875"/></g><g fill="#FFF503"><g><g><path d="M 17.96875 -17.375 C 20.09375 -16.625 21.15625 -14.890625 21.15625 -12.171875 L 21.15625 -6.484375 C 21.15625 -2.160156 19.125 0 15.0625 0 L 2.453125 0 L 2.453125 -31.75 L 14.671875 -31.75 C 18.734375 -31.75 20.765625 -29.59375 20.765625 -25.28125 L 20.765625 -22.375 C 20.765625 -19.757812 19.832031 -18.09375 17.96875 -17.375 Z M 12.953125 -27.09375 L 9.328125 -27.09375 L 9.328125 -18.59375 L 12.953125 -18.59375 C 13.210938 -18.59375 13.429688 -18.691406 13.609375 -18.890625 C 13.796875 -19.085938 13.890625 -19.316406 13.890625 -19.578125 L 13.890625 -26.109375 C 13.890625 -26.367188 13.796875 -26.597656 13.609375 -26.796875 C 13.429688 -26.992188 13.210938 -27.09375 12.953125 -27.09375 Z M 14.28125 -5.6875 L 14.28125 -12.8125 C 14.28125 -13.070312 14.1875 -13.300781 14 -13.5 C 13.820312 -13.695312 13.601562 -13.796875 13.34375 -13.796875 L 9.328125 -13.796875 L 9.328125 -4.71875 L 13.34375 -4.71875 C 13.601562 -4.71875 13.820312 -4.8125 14 -5 C 14.1875 -5.195312 14.28125 -5.425781 14.28125 -5.6875 Z M 14.28125 -5.6875" transform="translate(82.249 244.3)"/></g></g></g><g fill="#FFF503"><g><g><path d="M 15.0625 -31.75 C 19.125 -31.75 21.15625 -29.59375 21.15625 -25.28125 L 21.15625 -6.484375 C 21.15625 -2.160156 19.125 0 15.0625 0 L 2.453125 0 L 2.453125 -31.75 Z M 14.28125 -5.6875 L 14.28125 -26.109375 C 14.28125 -26.367188 14.1875 -26.597656 14 -26.796875 C 13.820312 -26.992188 13.601562 -27.09375 13.34375 -27.09375 L 9.328125 -27.09375 L 9.328125 -4.71875 L 13.34375 -4.71875 C 13.601562 -4.71875 13.820312 -4.8125 14 -5 C 14.1875 -5.195312 14.28125 -5.425781 14.28125 -5.6875 Z M 14.28125 -5.6875" transform="translate(105.659 244.3)"/></g></g></g><g fill="#FFF503"><g><g><path d="M 21.15625 -25.765625 L 21.15625 -5.984375 C 21.15625 -1.671875 19.125 0.484375 15.0625 0.484375 L 8.546875 0.484375 C 4.484375 0.484375 2.453125 -1.671875 2.453125 -5.984375 L 2.453125 -25.765625 C 2.453125 -30.085938 4.484375 -32.25 8.546875 -32.25 L 15.0625 -32.25 C 19.125 -32.25 21.15625 -30.085938 21.15625 -25.765625 Z M 14.28125 -5.203125 L 14.28125 -26.59375 C 14.28125 -26.863281 14.1875 -27.09375 14 -27.28125 C 13.820312 -27.476562 13.601562 -27.578125 13.34375 -27.578125 L 10.25 -27.578125 C 9.988281 -27.578125 9.769531 -27.476562 9.59375 -27.28125 C 9.414062 -27.09375 9.328125 -26.863281 9.328125 -26.59375 L 9.328125 -5.203125 C 9.328125 -4.941406 9.414062 -4.710938 9.59375 -4.515625 C 9.769531 -4.316406 9.988281 -4.21875 10.25 -4.21875 L 13.34375 -4.21875 C 13.601562 -4.21875 13.820312 -4.316406 14 -4.515625 C 14.1875 -4.710938 14.28125 -4.941406 14.28125 -5.203125 Z M 14.28125 -5.203125" transform="translate(129.462 244.3)"/></g></g></g><g fill="#FFF503"><g><g><path d="M 17.96875 -17.375 C 20.09375 -16.625 21.15625 -14.890625 21.15625 -12.171875 L 21.15625 -6.484375 C 21.15625 -2.160156 19.125 0 15.0625 0 L 2.453125 0 L 2.453125 -31.75 L 14.671875 -31.75 C 18.734375 -31.75 20.765625 -29.59375 20.765625 -25.28125 L 20.765625 -22.375 C 20.765625 -19.757812 19.832031 -18.09375 17.96875 -17.375 Z M 12.953125 -27.09375 L 9.328125 -27.09375 L 9.328125 -18.59375 L 12.953125 -18.59375 C 13.210938 -18.59375 13.429688 -18.691406 13.609375 -18.890625 C 13.796875 -19.085938 13.890625 -19.316406 13.890625 -19.578125 L 13.890625 -26.109375 C 13.890625 -26.367188 13.796875 -26.597656 13.609375 -26.796875 C 13.429688 -26.992188 13.210938 -27.09375 12.953125 -27.09375 Z M 14.28125 -5.6875 L 14.28125 -12.8125 C 14.28125 -13.070312 14.1875 -13.300781 14 -13.5 C 13.820312 -13.695312 13.601562 -13.796875 13.34375 -13.796875 L 9.328125 -13.796875 L 9.328125 -4.71875 L 13.34375 -4.71875 C 13.601562 -4.71875 13.820312 -4.8125 14 -5 C 14.1875 -5.195312 14.28125 -5.425781 14.28125 -5.6875 Z M 14.28125 -5.6875" transform="translate(163.13 244.3)"/></g></g></g><g fill="#FFF503"><g><g><path d="M 15.0625 -32.25 C 19.125 -32.25 21.15625 -30.085938 21.15625 -25.765625 L 21.15625 0 L 14.28125 0 L 14.28125 -10.65625 L 9.328125 -10.65625 L 9.328125 0 L 2.453125 0 L 2.453125 -25.765625 C 2.453125 -30.085938 4.484375 -32.25 8.546875 -32.25 Z M 9.328125 -15.953125 L 14.28125 -15.953125 L 14.28125 -26.59375 C 14.28125 -26.863281 14.1875 -27.09375 14 -27.28125 C 13.820312 -27.476562 13.601562 -27.578125 13.34375 -27.578125 L 10.25 -27.578125 C 9.988281 -27.578125 9.769531 -27.476562 9.59375 -27.28125 C 9.414062 -27.09375 9.328125 -26.863281 9.328125 -26.59375 Z M 9.328125 -15.953125" transform="translate(186.54 244.3)"/></g></g></g><g fill="#FFF503"><g><g><path d="M 9.328125 -13 L 9.328125 0 L 2.453125 0 L 2.453125 -31.75 L 14.671875 -31.75 C 18.734375 -31.75 20.765625 -29.59375 20.765625 -25.28125 L 20.765625 -21.59375 C 20.765625 -18.976562 19.832031 -17.3125 17.96875 -16.59375 C 19.601562 -16 20.421875 -14.65625 20.421875 -12.5625 L 20.421875 0 L 13.546875 0 L 13.546875 -12.03125 C 13.546875 -12.675781 13.234375 -13 12.609375 -13 Z M 9.328125 -27.09375 L 9.328125 -17.8125 L 12.953125 -17.8125 C 13.210938 -17.8125 13.429688 -17.910156 13.609375 -18.109375 C 13.796875 -18.304688 13.890625 -18.535156 13.890625 -18.796875 L 13.890625 -26.109375 C 13.890625 -26.367188 13.796875 -26.597656 13.609375 -26.796875 C 13.429688 -26.992188 13.210938 -27.09375 12.953125 -27.09375 Z M 9.328125 -27.09375" transform="translate(210.343 244.3)"/></g></g></g><g fill="#FFF503"><g><g><path d="M 0.640625 -25.90625 L 0.640625 -31.75 L 17.8125 -31.75 L 17.8125 -25.90625 L 12.65625 -25.90625 L 12.65625 0 L 5.796875 0 L 5.796875 -25.90625 Z M 0.640625 -25.90625" transform="translate(233.066 244.3)"/></g></g></g><g fill="#FFF503"><g><g><path d="M 9.328125 -5.6875 L 16.9375 -5.6875 L 16.9375 0 L 2.453125 0 L 2.453125 -31.75 L 16.9375 -31.75 L 16.9375 -26.15625 L 9.328125 -26.15625 L 9.328125 -18.703125 L 16.4375 -18.703125 L 16.4375 -13.296875 L 9.328125 -13.296875 Z M 9.328125 -5.6875" transform="translate(251.568 244.3)"/></g></g></g><g fill="#FFF503"><g><g><path d="M 9.328125 -13 L 9.328125 0 L 2.453125 0 L 2.453125 -31.75 L 14.671875 -31.75 C 18.734375 -31.75 20.765625 -29.59375 20.765625 -25.28125 L 20.765625 -21.59375 C 20.765625 -18.976562 19.832031 -17.3125 17.96875 -16.59375 C 19.601562 -16 20.421875 -14.65625 20.421875 -12.5625 L 20.421875 0 L 13.546875 0 L 13.546875 -12.03125 C 13.546875 -12.675781 13.234375 -13 12.609375 -13 Z M 9.328125 -27.09375 L 9.328125 -17.8125 L 12.953125 -17.8125 C 13.210938 -17.8125 13.429688 -17.910156 13.609375 -18.109375 C 13.796875 -18.304688 13.890625 -18.535156 13.890625 -18.796875 L 13.890625 -26.109375 C 13.890625 -26.367188 13.796875 -26.597656 13.609375 -26.796875 C 13.429688 -26.992188 13.210938 -27.09375 12.953125 -27.09375 Z M 9.328125 -27.09375" transform="translate(270.022 244.3)"/></g></g></g><g fill="#FFF"><g><g><path d="M 4.671875 -3.34375 C 5.046875 -3.226562 5.332031 -3.035156 5.53125 -2.765625 C 5.738281 -2.492188 5.84375 -2.160156 5.84375 -1.765625 C 5.84375 -1.210938 5.644531 -0.78125 5.25 -0.46875 C 4.863281 -0.15625 4.320312 0 3.625 0 L 0.703125 0 L 0.703125 -6.46875 L 3.546875 -6.46875 C 4.203125 -6.46875 4.722656 -6.316406 5.109375 -6.015625 C 5.492188 -5.710938 5.6875 -5.300781 5.6875 -4.78125 C 5.6875 -4.4375 5.59375 -4.140625 5.40625 -3.890625 C 5.226562 -3.640625 4.984375 -3.457031 4.671875 -3.34375 Z M 1.84375 -3.734375 L 3.34375 -3.734375 C 4.15625 -3.734375 4.5625 -4.035156 4.5625 -4.640625 C 4.5625 -4.953125 4.460938 -5.179688 4.265625 -5.328125 C 4.066406 -5.484375 3.757812 -5.5625 3.34375 -5.5625 L 1.84375 -5.5625 Z M 3.5 -0.90625 C 3.925781 -0.90625 4.238281 -0.976562 4.4375 -1.125 C 4.632812 -1.28125 4.734375 -1.523438 4.734375 -1.859375 C 4.734375 -2.179688 4.632812 -2.421875 4.4375 -2.578125 C 4.238281 -2.742188 3.925781 -2.828125 3.5 -2.828125 L 1.84375 -2.828125 L 1.84375 -0.90625 Z M 3.5 -0.90625" transform="translate(148.215 275.126)"/></g></g></g><g fill="#FFF"><g><g><path d="M 0.703125 0 L 0.703125 -6.46875 L 1.875 -6.46875 L 1.875 -0.96875 L 4.890625 -0.96875 L 4.890625 0 Z M 0.703125 0" transform="translate(155.113 275.126)"/></g></g></g><g fill="#FFF"><g><g><path d="M 5.640625 0 L 5 -1.515625 L 1.828125 -1.515625 L 1.1875 0 L 0 0 L 2.921875 -6.46875 L 3.875 -6.46875 L 6.8125 0 Z M 2.21875 -2.421875 L 4.609375 -2.421875 L 3.40625 -5.1875 Z M 2.21875 -2.421875" transform="translate(160.831 275.126)"/></g></g></g><g fill="#FFF"><g><g><path d="M 3.625 0.078125 C 2.988281 0.078125 2.429688 -0.0546875 1.953125 -0.328125 C 1.484375 -0.597656 1.117188 -0.984375 0.859375 -1.484375 C 0.609375 -1.984375 0.484375 -2.566406 0.484375 -3.234375 C 0.484375 -3.898438 0.609375 -4.484375 0.859375 -4.984375 C 1.117188 -5.484375 1.484375 -5.867188 1.953125 -6.140625 C 2.429688 -6.410156 2.988281 -6.546875 3.625 -6.546875 C 4.0625 -6.546875 4.472656 -6.476562 4.859375 -6.34375 C 5.242188 -6.207031 5.5625 -6.019531 5.8125 -5.78125 L 5.4375 -4.921875 C 5.144531 -5.160156 4.851562 -5.332031 4.5625 -5.4375 C 4.28125 -5.539062 3.976562 -5.59375 3.65625 -5.59375 C 3.03125 -5.59375 2.546875 -5.390625 2.203125 -4.984375 C 1.859375 -4.578125 1.6875 -3.992188 1.6875 -3.234375 C 1.6875 -2.472656 1.851562 -1.890625 2.1875 -1.484375 C 2.53125 -1.078125 3.019531 -0.875 3.65625 -0.875 C 3.976562 -0.875 4.28125 -0.925781 4.5625 -1.03125 C 4.851562 -1.132812 5.144531 -1.304688 5.4375 -1.546875 L 5.8125 -0.6875 C 5.5625 -0.445312 5.242188 -0.257812 4.859375 -0.125 C 4.472656 0.0078125 4.0625 0.078125 3.625 0.078125 Z M 3.625 0.078125" transform="translate(168.274 275.126)"/></g></g></g><g fill="#FFF"><g><g><path d="M 6.3125 0 L 4.875 0 L 1.875 -3.015625 L 1.875 0 L 0.703125 0 L 0.703125 -6.46875 L 1.875 -6.46875 L 1.875 -3.5625 L 4.75 -6.46875 L 6.15625 -6.46875 L 3.015625 -3.359375 Z M 6.3125 0" transform="translate(175.127 275.126)"/></g></g></g><g fill="#FFF"><g><g><path d="M 0.703125 -6.46875 L 3.078125 -6.46875 C 4.140625 -6.46875 4.960938 -6.1875 5.546875 -5.625 C 6.128906 -5.0625 6.421875 -4.265625 6.421875 -3.234375 C 6.421875 -2.210938 6.128906 -1.414062 5.546875 -0.84375 C 4.960938 -0.28125 4.140625 0 3.078125 0 L 0.703125 0 Z M 3 -0.953125 C 4.488281 -0.953125 5.234375 -1.710938 5.234375 -3.234375 C 5.234375 -4.753906 4.488281 -5.515625 3 -5.515625 L 1.875 -5.515625 L 1.875 -0.953125 Z M 3 -0.953125" transform="translate(184.93 275.126)"/></g></g></g><g fill="#FFF"><g><g><path d="M 0.703125 0 L 0.703125 -6.46875 L 5.015625 -6.46875 L 5.015625 -5.53125 L 1.84375 -5.53125 L 1.84375 -3.75 L 4.828125 -3.75 L 4.828125 -2.828125 L 1.84375 -2.828125 L 1.84375 -0.921875 L 5.015625 -0.921875 L 5.015625 0 Z M 0.703125 0" transform="translate(192.481 275.126)"/></g></g></g><g fill="#FFF"><g><g><path d="M 2.890625 0.078125 C 2.390625 0.078125 1.921875 0.015625 1.484375 -0.109375 C 1.054688 -0.242188 0.691406 -0.4375 0.390625 -0.6875 L 0.796875 -1.546875 C 1.109375 -1.304688 1.429688 -1.128906 1.765625 -1.015625 C 2.109375 -0.910156 2.484375 -0.859375 2.890625 -0.859375 C 3.335938 -0.859375 3.679688 -0.9375 3.921875 -1.09375 C 4.171875 -1.25 4.296875 -1.46875 4.296875 -1.75 C 4.296875 -1.988281 4.179688 -2.171875 3.953125 -2.296875 C 3.734375 -2.429688 3.363281 -2.554688 2.84375 -2.671875 C 2.03125 -2.847656 1.4375 -3.078125 1.0625 -3.359375 C 0.695312 -3.640625 0.515625 -4.046875 0.515625 -4.578125 C 0.515625 -4.953125 0.617188 -5.285156 0.828125 -5.578125 C 1.035156 -5.878906 1.328125 -6.113281 1.703125 -6.28125 C 2.078125 -6.457031 2.515625 -6.546875 3.015625 -6.546875 C 3.460938 -6.546875 3.890625 -6.476562 4.296875 -6.34375 C 4.710938 -6.207031 5.050781 -6.019531 5.3125 -5.78125 L 4.921875 -4.921875 C 4.347656 -5.378906 3.710938 -5.609375 3.015625 -5.609375 C 2.597656 -5.609375 2.265625 -5.519531 2.015625 -5.34375 C 1.773438 -5.175781 1.65625 -4.941406 1.65625 -4.640625 C 1.65625 -4.390625 1.765625 -4.195312 1.984375 -4.0625 C 2.203125 -3.9375 2.570312 -3.8125 3.09375 -3.6875 C 3.625 -3.5625 4.054688 -3.425781 4.390625 -3.28125 C 4.734375 -3.132812 4.992188 -2.941406 5.171875 -2.703125 C 5.359375 -2.472656 5.453125 -2.179688 5.453125 -1.828125 C 5.453125 -1.441406 5.347656 -1.101562 5.140625 -0.8125 C 4.941406 -0.53125 4.644531 -0.3125 4.25 -0.15625 C 3.863281 0 3.410156 0.078125 2.890625 0.078125 Z M 2.890625 0.078125" transform="translate(198.518 275.126)"/></g></g></g><g fill="#FFF"><g><g><path d="M 0.703125 0 L 0.703125 -6.46875 L 5.015625 -6.46875 L 5.015625 -5.53125 L 1.84375 -5.53125 L 1.84375 -3.75 L 4.828125 -3.75 L 4.828125 -2.828125 L 1.84375 -2.828125 L 1.84375 -0.921875 L 5.015625 -0.921875 L 5.015625 0 Z M 0.703125 0" transform="translate(204.998 275.126)"/></g></g></g><g fill="#FFF"><g><g><path d="M 6.015625 0 L 4.78125 0 L 3.953125 -2.15625 C 3.878906 -2.351562 3.765625 -2.488281 3.609375 -2.5625 C 3.460938 -2.644531 3.269531 -2.6875 3.03125 -2.6875 L 1.859375 -2.6875 L 1.859375 0 L 0.703125 0 L 0.703125 -6.46875 L 3.46875 -6.46875 C 4.195312 -6.46875 4.75 -6.304688 5.125 -5.984375 C 5.507812 -5.660156 5.703125 -5.203125 5.703125 -4.609375 C 5.703125 -4.171875 5.585938 -3.800781 5.359375 -3.5 C 5.140625 -3.207031 4.820312 -3 4.40625 -2.875 C 4.78125 -2.789062 5.054688 -2.519531 5.234375 -2.0625 Z M 3.296875 -3.59375 C 3.742188 -3.59375 4.070312 -3.671875 4.28125 -3.828125 C 4.5 -3.992188 4.609375 -4.242188 4.609375 -4.578125 C 4.609375 -4.910156 4.5 -5.15625 4.28125 -5.3125 C 4.070312 -5.476562 3.742188 -5.5625 3.296875 -5.5625 L 1.84375 -5.5625 L 1.84375 -3.59375 Z M 3.296875 -3.59375" transform="translate(211.034 275.126)"/></g></g></g><g fill="#FFF"><g><g><path d="M 2.21875 0 L 2.21875 -5.5 L 0.109375 -5.5 L 0.109375 -6.46875 L 5.515625 -6.46875 L 5.515625 -5.5 L 3.390625 -5.5 L 3.390625 0 Z M 2.21875 0" transform="translate(218.041 275.126)"/></g></g></g></svg>