<?xml version="1.0" standalone="no"?>
<!DOCTYPE svg PUBLIC "-//W3C//DTD SVG 20010904//EN"
 "http://www.w3.org/TR/2001/REC-SVG-20010904/DTD/svg10.dtd">
<svg version="1.0" xmlns="http://www.w3.org/2000/svg"
 width="330.000000pt" height="150.000000pt" viewBox="0 0 330.000000 150.000000"
 preserveAspectRatio="xMidYMid meet">

<g transform="translate(0.000000,150.000000) scale(0.100000,-0.100000)"
fill="#000000" stroke="none">
<path d="M720 1195 l-44 -45 41 -243 41 -242 1 241 1 242 143 26 c78 15 185
35 237 45 l95 19 -235 1 -236 1 -44 -45z"/>
<path d="M1080 825 l0 -105 26 0 c27 0 27 0 21 62 l-5 62 19 -43 c23 -51 46
-52 71 -3 9 19 18 35 20 37 1 2 1 -23 0 -56 -4 -58 -3 -59 22 -59 l26 0 0 105
0 105 -25 0 c-20 0 -30 -10 -51 -52 l-27 -53 -25 53 c-20 40 -31 52 -49 52
-23 0 -23 -2 -23 -105z"/>
<path d="M1385 918 c-2 -7 -18 -51 -35 -97 -16 -47 -30 -88 -30 -93 0 -17 50
-7 60 12 6 12 21 20 35 20 14 0 29 -8 35 -20 10 -19 60 -29 60 -12 -1 4 -16
50 -34 102 -30 85 -36 95 -60 98 -15 2 -28 -2 -31 -10z m44 -105 c1 -7 -6 -13
-15 -13 -12 0 -15 6 -10 23 3 12 6 29 7 37 1 15 16 -24 18 -47z"/>
<path d="M1550 890 c0 -59 21 -55 35 8 6 28 4 32 -14 32 -18 0 -21 -6 -21 -40z"/>
<path d="M1685 918 c-2 -7 -18 -51 -35 -97 -16 -47 -30 -88 -30 -93 0 -17 50
-7 60 12 6 12 21 20 35 20 14 0 29 -8 35 -20 10 -19 60 -29 60 -12 -1 4 -16
50 -34 102 -30 85 -36 95 -60 98 -15 2 -28 -2 -31 -10z m44 -105 c1 -7 -6 -13
-15 -13 -12 0 -15 6 -10 23 3 12 6 29 7 37 1 15 16 -24 18 -47z"/>
<path d="M1850 825 l0 -105 25 0 c21 0 25 5 25 30 0 28 3 30 35 30 45 0 75 29
75 73 0 56 -30 77 -109 77 l-51 0 0 -105z m103 43 c7 -23 -4 -38 -29 -38 -19
0 -24 5 -24 25 0 20 5 25 24 25 13 0 26 -6 29 -12z"/>
<path d="M2054 917 c-3 -8 -4 -54 -2 -103 3 -88 3 -89 28 -89 20 0 26 6 28 28
3 23 8 27 33 27 40 0 69 32 69 75 0 53 -28 75 -95 75 -37 0 -57 -4 -61 -13z
m101 -62 c0 -13 -8 -21 -22 -23 -19 -3 -23 1 -23 23 0 22 4 26 23 23 14 -2 22
-10 22 -23z"/>
<path d="M2506 660 l-39 -230 -250 0 c-138 0 -248 -2 -246 -5 3 -2 117 -25
255 -49 l249 -45 37 42 37 42 1 238 c0 130 -1 237 -3 237 -1 0 -20 -103 -41
-230z"/>
</g>
</svg>
