<svg width="610" height="702" viewBox="0 0 610 702" fill="none" xmlns="http://www.w3.org/2000/svg">
<g clip-path="url(#clip0)">
<path d="M610 632.141C610 653.448 473.447 702 305 702C136.553 702 0 653.448 0 632.141C0 610.835 136.553 624.843 305 624.843C473.447 624.843 610 610.835 610 632.141Z" fill="#3F3D56"/>
<path opacity="0.1" d="M610 632.141C610 653.448 473.447 702 305 702C136.553 702 0 653.448 0 632.141C0 610.835 136.553 624.843 305 624.843C473.447 624.843 610 610.835 610 632.141Z" fill="black"/>
<path d="M86.8609 348.536C93.9477 348.536 99.6926 342.467 99.6926 334.981C99.6926 327.495 93.9477 321.426 86.8609 321.426C79.7741 321.426 74.0292 327.495 74.0292 334.981C74.0292 342.467 79.7741 348.536 86.8609 348.536Z" fill="#6C63FF"/>
<path d="M143.123 460.101C150.21 460.101 155.955 454.033 155.955 446.547C155.955 439.06 150.21 432.992 143.123 432.992C136.036 432.992 130.291 439.06 130.291 446.547C130.291 454.033 136.036 460.101 143.123 460.101Z" fill="#6C63FF"/>
<path d="M99.6926 431.949C106.779 431.949 112.524 425.881 112.524 418.395C112.524 410.908 106.779 404.84 99.6926 404.84C92.6058 404.84 86.8608 410.908 86.8608 418.395C86.8608 425.881 92.6058 431.949 99.6926 431.949Z" fill="#6C63FF"/>
<path d="M103.785 610.789C103.559 610.398 98.2178 600.977 96.3661 581.415C94.6677 563.468 95.7598 533.216 110.612 491.018C138.749 411.075 104.128 346.574 103.774 345.931L105.482 344.884C105.572 345.047 114.505 361.493 119.783 387.68C126.756 422.398 124.217 458.496 112.463 491.745C84.3739 571.551 105.256 609.33 105.47 609.703L103.785 610.789Z" fill="#CFCCE0"/>
<path d="M92.7831 342.28C90.05 342.28 87.3783 341.424 85.1058 339.82C82.8334 338.216 81.0622 335.936 80.0162 333.269C78.9703 330.601 78.6967 327.666 79.2299 324.835C79.7631 322.003 81.0792 319.402 83.0118 317.361C84.9444 315.319 87.4067 313.929 90.0872 313.366C92.7678 312.802 95.5463 313.091 98.0714 314.196C100.596 315.301 102.755 317.172 104.273 319.573C105.791 321.973 106.602 324.795 106.602 327.683C106.598 331.553 105.141 335.263 102.55 338C99.9593 340.736 96.4469 342.276 92.7831 342.28ZM92.7831 315.171C90.4405 315.171 88.1505 315.904 86.2026 317.279C84.2548 318.654 82.7366 320.608 81.8401 322.894C80.9436 325.181 80.709 327.696 81.1661 330.123C81.6231 332.551 82.7512 334.78 84.4077 336.53C86.0642 338.28 88.1747 339.471 90.4724 339.954C92.77 340.437 95.1516 340.189 97.3159 339.242C99.4802 338.295 101.33 336.691 102.632 334.634C103.933 332.576 104.628 330.157 104.628 327.683C104.624 324.365 103.375 321.185 101.155 318.839C98.9341 316.494 95.9234 315.174 92.7831 315.171Z" fill="#CFCCE0"/>
<path d="M133.252 391.285C140.339 391.285 146.084 385.217 146.084 377.731C146.084 370.244 140.339 364.176 133.252 364.176C126.166 364.176 120.421 370.244 120.421 377.731C120.421 385.217 126.166 391.285 133.252 391.285Z" fill="#CFCCE0"/>
<path d="M105.615 425.693C102.882 425.693 100.21 424.837 97.9376 423.233C95.6651 421.629 93.8939 419.349 92.848 416.682C91.8021 414.015 91.5285 411.08 92.0617 408.248C92.5949 405.416 93.911 402.815 95.8436 400.774C97.7762 398.732 100.238 397.342 102.919 396.779C105.6 396.216 108.378 396.505 110.903 397.61C113.428 398.714 115.586 400.585 117.105 402.986C118.623 405.387 119.434 408.209 119.434 411.096C119.43 414.966 117.972 418.676 115.382 421.413C112.791 424.15 109.279 425.689 105.615 425.693ZM105.615 398.584C103.272 398.584 100.982 399.318 99.0343 400.692C97.0865 402.067 95.5683 404.021 94.6718 406.308C93.7753 408.594 93.5408 411.11 93.9978 413.537C94.4548 415.964 95.5829 418.193 97.2394 419.943C98.896 421.693 101.006 422.885 103.304 423.367C105.602 423.85 107.983 423.602 110.148 422.655C112.312 421.708 114.162 420.105 115.463 418.047C116.765 415.99 117.46 413.57 117.46 411.096C117.456 407.779 116.207 404.598 113.986 402.253C111.766 399.907 108.755 398.588 105.615 398.584V398.584Z" fill="#CFCCE0"/>
<path d="M139.175 453.845C136.442 453.845 133.77 452.989 131.498 451.385C129.225 449.781 127.454 447.501 126.408 444.834C125.362 442.167 125.088 439.232 125.622 436.4C126.155 433.568 127.471 430.967 129.404 428.926C131.336 426.885 133.798 425.494 136.479 424.931C139.16 424.368 141.938 424.657 144.463 425.762C146.988 426.866 149.146 428.737 150.665 431.138C152.183 433.539 152.994 436.361 152.994 439.248C152.99 443.118 151.532 446.828 148.942 449.565C146.351 452.301 142.839 453.841 139.175 453.845ZM139.175 426.736C136.832 426.736 134.542 427.47 132.594 428.845C130.646 430.219 129.128 432.173 128.232 434.46C127.335 436.746 127.101 439.262 127.558 441.689C128.015 444.116 129.143 446.345 130.799 448.095C132.456 449.845 134.566 451.037 136.864 451.519C139.162 452.002 141.543 451.754 143.708 450.807C145.872 449.86 147.722 448.257 149.023 446.199C150.325 444.142 151.019 441.722 151.019 439.248C151.016 435.931 149.767 432.75 147.546 430.405C145.326 428.059 142.315 426.74 139.175 426.736Z" fill="#CFCCE0"/>
<path d="M95.7443 496.595C102.831 496.595 108.576 490.526 108.576 483.04C108.576 475.554 102.831 469.485 95.7443 469.485C88.6576 469.485 82.9126 475.554 82.9126 483.04C82.9126 490.526 88.6576 496.595 95.7443 496.595Z" fill="#CFCCE0"/>
<path d="M111.537 611.288C111.537 611.288 98.7055 577.923 137.201 552.899L111.537 611.288Z" fill="#CFCCE0"/>
<path d="M95.7562 610.683C95.7562 610.683 89.9163 575.201 44.717 575.506L95.7562 610.683Z" fill="#CFCCE0"/>
<path d="M559.006 623.8H340.597C340.597 623.8 336.17 555.209 362.364 554.43C388.558 553.65 385.607 584.828 418.442 541.958C451.277 499.089 491.122 501.428 496.287 526.759C501.453 552.091 486.326 572.357 513.996 566.121C541.666 559.886 581.511 576.254 559.006 623.8Z" fill="#6C63FF"/>
<path d="M446.115 623.816L445.378 623.784C447.097 578.625 456.05 549.609 463.259 533.221C471.085 515.426 478.627 508.222 478.702 508.151L479.193 508.734C479.118 508.804 471.664 515.936 463.901 533.61C456.732 549.93 447.828 578.826 446.115 623.816Z" fill="#F2F2F2"/>
<path d="M525.163 623.909L524.454 623.691C532.984 592.765 553.07 573.24 553.272 573.046L553.767 573.623C553.567 573.815 533.632 593.203 525.163 623.909Z" fill="#F2F2F2"/>
<path d="M374.997 623.854L374.266 623.746C377.16 601.7 371.933 584.595 367.038 574.128C361.738 562.794 355.691 556.605 355.63 556.543L356.141 555.981C356.202 556.043 362.343 562.328 367.7 573.782C372.64 584.348 377.917 601.611 374.997 623.854Z" fill="#F2F2F2"/>
<path d="M588.649 624.843H317.039L316.977 623.871C316.821 621.453 313.356 564.422 330.849 544.074C334.76 539.525 339.47 537.137 344.85 536.977C356.253 536.634 363.418 541.146 369.198 544.767C380.092 551.594 387.288 556.104 413.455 521.942C441.801 484.933 472.385 476.971 489.967 481.398C501.327 484.259 509.156 492.345 511.448 503.584C513.618 514.225 512.926 524.224 512.371 532.259C511.777 540.855 511.307 547.645 514.65 550.722C517.44 553.29 523.009 553.523 532.175 551.457C550.819 547.255 576.832 550.85 589.89 568.671C596.915 578.259 602.449 595.687 588.921 624.266L588.649 624.843ZM318.893 622.757H587.426C597.507 601.154 597.821 582.904 588.329 569.948C576.35 553.6 551.221 549.297 532.587 553.496C522.628 555.741 516.694 555.37 513.353 552.294C509.266 548.533 509.768 541.284 510.402 532.107C510.948 524.205 511.628 514.372 509.518 504.023C507.393 493.601 500.1 486.094 489.509 483.427C472.488 479.137 442.758 486.999 414.989 523.253C387.751 558.816 379.545 553.676 368.191 546.561C362.34 542.895 355.697 538.738 344.906 539.061C340.083 539.205 335.846 541.363 332.31 545.476C316.588 563.764 318.508 615.047 318.893 622.757Z" fill="#CFCCE0"/>
<path d="M305 670.72C473.447 670.72 610 653.448 610 632.141C610 610.835 473.447 593.563 305 593.563C136.553 593.563 0 610.835 0 632.141C0 653.448 136.553 670.72 305 670.72Z" fill="#3F3D56"/>
<path d="M311.707 127.465C311.707 127.465 296.459 121.712 286.656 144.722C276.854 167.732 261.606 193.043 261.606 193.043L270.319 195.344C270.319 195.344 272.497 179.237 277.943 176.936L275.765 197.645C275.765 197.645 341.113 221.806 370.52 195.344L369.431 187.291C369.431 187.291 373.788 188.441 373.788 195.344L377.055 191.893C377.055 191.893 373.788 184.99 363.985 175.786C357.552 169.745 355.341 158.251 354.581 151.066C354.012 145.066 351.739 139.387 348.061 134.775C341.547 126.801 329.677 118.325 311.707 127.465Z" fill="#2F2E41"/>
<path d="M295.623 217.681L279.83 196.828L267.985 154.078L313.39 102.988C313.39 102.988 323.261 63.3663 314.377 65.4516C305.494 67.5369 303.519 96.7316 303.519 96.7316L246.27 143.652C246.27 143.652 252.193 209.34 268.973 232.278L281.804 275.028L295.623 217.681Z" fill="#FFB9B9"/>
<path d="M339.053 217.681L354.846 196.828L366.691 154.078L321.286 102.988C321.286 102.988 311.416 63.3663 320.299 65.4516C329.183 67.5369 331.157 96.7316 331.157 96.7316L388.406 143.652C388.406 143.652 382.484 209.34 365.704 232.278L352.872 275.028L339.053 217.681Z" fill="#FFB9B9"/>
<path d="M317.338 199.956C331.512 199.956 343.002 187.819 343.002 172.846C343.002 157.874 331.512 145.737 317.338 145.737C303.165 145.737 291.675 157.874 291.675 172.846C291.675 187.819 303.165 199.956 317.338 199.956Z" fill="#FFB9B9"/>
<path d="M305.494 187.444C305.494 187.444 306.481 209.34 300.558 216.638C294.636 223.937 288.714 261.473 317.338 262.516C345.963 263.558 343.002 231.236 343.002 231.236L337.079 213.51C337.079 213.51 328.196 199.956 331.157 187.444H305.494Z" fill="#FFB9B9"/>
<path d="M278.843 430.385L300.065 437.163C300.065 437.163 317.338 426.215 317.338 436.641C317.338 447.068 311.416 460.623 313.39 470.007C315.364 479.391 319.312 502.329 313.39 502.329C307.468 502.329 295.623 461.665 295.623 461.665L275.882 450.196L278.843 430.385Z" fill="#FFB9B9"/>
<path d="M305.493 576.359L297.597 608.681C297.597 608.681 290.688 618.065 297.597 622.236C300.839 624.193 303.212 628.216 304.817 631.936C306.217 635.286 308.558 638.099 311.524 639.995C314.49 641.89 317.936 642.775 321.394 642.53C324.763 642.234 327.601 640.827 328.292 637.171C328.483 636.023 328.445 634.847 328.182 633.716C327.919 632.584 327.436 631.523 326.763 630.6C319.482 620.207 317.832 613.373 317.832 613.373L320.793 576.88L305.493 576.359Z" fill="#FFB9B9"/>
<path d="M286.38 177.661C286.38 177.661 295.094 165.005 302.718 162.704C310.342 160.403 311.431 148.898 311.431 148.898C311.431 148.898 331.035 171.908 343.016 173.059C354.996 174.209 344.105 145.447 344.105 145.447L322.322 139.694L301.628 141.995L285.291 153.5L286.38 177.661Z" fill="#2F2E41"/>
<path d="M269.959 351.142L266.011 359.484C266.011 359.484 170.267 391.807 178.163 422.044C186.06 452.281 230.477 443.94 230.477 443.94L279.83 453.324L284.765 430.385L250.218 421.001L309.442 398.063L311.416 504.415L303.519 580.529L323.26 582.615C323.26 582.615 344.976 512.756 342.015 483.561C342.015 483.561 378.536 364.697 357.807 346.972C337.079 329.247 269.959 351.142 269.959 351.142Z" fill="#2F2E41"/>
<path d="M318.496 231.25L303.094 211.588L292.662 216.638L281.804 253.132C281.804 253.132 272.921 270.857 283.778 289.625C283.778 289.625 285.753 302.137 282.791 305.265C279.83 308.393 278.843 328.204 278.843 328.204L266.011 354.271C266.011 354.271 339.054 367.825 360.769 349.057C360.769 349.057 349.374 304.68 356.283 291.125C363.193 277.57 364.18 256.791 356.283 247.407C348.387 238.023 340.041 213.51 340.041 213.51L335.26 210.281L318.496 231.25Z" fill="#CFCCE0"/>
<path d="M376.077 75.5774H366.61V65.5773H365.75V75.5774H356.283V76.486H365.75V86.486H366.61V76.486H376.077V75.5774Z" fill="#CFCCE0"/>
<path d="M286.106 54.6687H276.639V44.6686H275.779V54.6687H266.312V55.5773H275.779V65.5773H276.639V55.5773H286.106V54.6687Z" fill="#CFCCE0"/>
<path d="M329.292 10H319.826V0H318.965V10H309.498V10.9087H318.965V20.9087H319.826V10.9087H329.292V10Z" fill="#CFCCE0"/>
</g>
<defs>
<clipPath id="clip0">
<rect width="610" height="702" fill="white"/>
</clipPath>
</defs>
</svg>
